<?xml version="1.0" encoding="UTF-8"?><svg id="uuid-5c687ad0-b09a-4493-87de-4c8d251d51b2" xmlns="http://www.w3.org/2000/svg" viewBox="0 0 93 50" width="93" height="50"><g id="uuid-28d52812-e7c5-407e-b3fc-9a4551bceebc"><path d="m20.07,18.97c-1.06.2-1.28.36-1.66,1.4-2.18,5.88-2.38,6.46-4.08,11.68h-.3c-1.02-2.84-2.16-5.8-3.2-8.46l-3.08,8.46h-.3c-1.22-3.6-2.66-7.32-3.84-10.68-.66-1.9-1.06-2.38-2.08-2.4v-.38h4.88v.38c-1.02.02-1.28.2-1.28.62,0,.24.08.56.22.94l2.88,7.52,2.08-5.66-.56-1.5c-.66-1.76-.9-1.9-2.04-1.92v-.38h5.3v.38c-1,.02-1.54.28-1.54.7,0,.22.16.68.34,1.16l2.86,7.28,2.52-6.78c.22-.62.34-1.12.34-1.54,0-.54-.38-.8-1.4-.82v-.38h3.94v.38Zm17.84,12.86v-.38c.72,0,.86-.04,1.1-.18.16-.08.28-.3.28-.48,0-.3-.14-.84-.38-1.4l-.82-1.88h-5.24l-.92,2.28c-.1.26-.18.6-.18.84,0,.62.44.82,1.4.82v.38h-3.98v-.38c1.16-.12,1.34-.54,2.52-3.34l4.12-9.76h.4l4.92,11.26c.56,1.3.84,1.72,1.88,1.84v.38h-5.1Zm-2.42-10.64l-2.3,5.5h4.62l-2.32-5.5Zm30.7-2.22c-.8.02-1.26.34-1.84,1.82l-4.44,11.26h-.3l-4.88-10.88c-.86-1.94-1.16-2.18-2.16-2.2v-.38h5.3v.38l-.56.04c-.64.04-.9.22-.9.62,0,.32.18.8.78,2.14l3.04,6.84,2.94-7.38c.24-.6.38-1.1.38-1.44,0-.78-.64-.74-1.44-.82v-.38h4.08v.38Zm22.12,12.86h-10.78v-.38c1.54-.1,1.74-.36,1.74-1.9v-8.72c0-1.48-.24-1.78-1.74-1.86v-.38h10.6l.08,2.86h-.5c-.3-1.8-.76-2.1-3.08-2.1h-2.62c-.56,0-.7.08-.7.72v4.4h3.02c1.72,0,2.02-.34,2.26-1.92h.46v4.68h-.46c-.24-1.68-.54-1.94-2.26-1.94h-3.02v4.86c0,.84.54.94,2.02.94h.72c2.86,0,3.72-.52,4.62-2.64h.56l-.92,3.38Z"/><path d="m.43,45.28c1.97-2.08,4.74-3.59,7.29-4.81,11.57-5.51,25.35-5.58,37.67-2.91,5.79,1.26,11.49,2.91,17.05,4.93,19.41,7.05,30.13,1.85,30.13,1.85-4.77,3.7-13.35,5.25-20.82,5.19-7.56-.06-14.56-2.25-21.62-4.72-5.43-1.9-10.94-3.13-16.63-4.04C14.91,37.8.43,45.28.43,45.28ZM92.57,9.9c-1.97-2.08-4.74-3.59-7.29-4.81C73.71-.42,59.93-.49,47.61,2.18c-5.79,1.26-11.49,2.91-17.05,4.93C11.15,14.15.43,8.96.43,8.96c4.77,3.7,13.35,5.25,20.82,5.19,7.56-.06,14.56-2.25,21.62-4.72,5.43-1.9,10.94-3.13,16.63-4.04,18.58-2.98,33.06,4.51,33.06,4.51Z" fill="#a30000"/></g></svg>
