<?xml version="1.0" encoding="UTF-8" standalone="no"?>
<svg 
    role="img" 
    xmlns="http://www.w3.org/2000/svg" 
    width="1000mm"
    height="1000mm"
    viewBox="0 0 1000 1000"
    style="max-width:1.6em; height: auto;">
    
    <path 
        id="path" 
        style="opacity:1;vector-effect:none;fill:#000000;fill-opacity:1;"
        d=" M 878 697C 878 697 878 697 878 697C 873 711 868 725 862 739C 849 770 832 799 814 826C 788 862 767 887 751 901C 727 924 700 936 671 936C 651 936 626 930 597 919C 568 907 542 901 518 901C 492 901 465 907 436 919C 407 930 383 937 365 937C 338 938 310 926 283 901C 266 886 244 860 218 823C 190 784 167 738 149 686C 130 630 120 576 120 523C 120 463 133 411 159 367C 180 332 207 304 241 284C 275 264 312 253 352 253C 374 253 402 259 438 273C 473 286 496 293 506 293C 513 293 538 285 581 269C 621 255 656 249 683 251C 759 257 816 287 854 341C 786 382 753 439 753 513C 754 570 775 618 816 656C 834 674 855 687 878 697M 688 55C 688 55 688 55 688 55C 688 100 672 142 639 181C 600 227 552 254 500 250C 499 245 499 239 499 233C 499 190 518 143 551 106C 568 87 589 71 615 58C 640 45 665 38 688 37C 688 43 688 49 688 55"
        transform="">
    </path>    
</svg>