<?xml version="1.0" encoding="UTF-8" standalone="no"?>
<svg 
    role="img" 
    xmlns="http://www.w3.org/2000/svg" 
    width="1000mm"
    height="1000mm"
    viewBox="0 0 1000 1000"
    style="max-width:1.6em; height: auto;">
    
    <path 
        id="path" 
        style="opacity:1;vector-effect:none;fill:#000000;fill-opacity:1;"
        d=" M 175 750C 175 750 175 750 175 750C 175 625 250 550 375 550C 458 571 458 575 500 575C 542 575 547 571 630 550C 755 550 825 625 825 750C 825 750 825 825 825 825C 825 867 792 900 750 900C 750 900 250 900 250 900C 208 900 175 867 175 825C 175 825 175 750 175 750M 367 173C 367 173 367 173 367 173C 403 138 450 118 500 118C 550 118 597 138 633 173C 668 208 688 256 688 306C 687 409 604 493 500 493C 396 493 312 409 312 306C 312 256 332 208 367 173"
        transform="">
    </path>    
</svg>